<svg xmlns="http://www.w3.org/2000/svg" width="27" height="39" viewBox="0 0 27 39">
  <g fill="#D5D5D5">
    <path d="M13.5033647,26.9474433 C15.565541,26.9474433 17.330307,26.2144727 18.7985653,24.749187 C20.2665775,23.2839013 21.0006657,21.5211176 21.0006657,19.4624748 L21.0006657,7.48578782 C21.0006657,5.42714496 20.267152,3.66509874 18.7985653,2.19907563 C17.330307,0.733380252 15.565541,0 13.5033647,0 C11.4414347,0 9.67642249,0.733380252 8.20808207,2.19907563 C6.73965957,3.66485294 6.00557143,5.42714496 6.00557143,7.48578782 L6.00557143,19.4624748 C6.00557143,21.5210357 6.73998784,23.2839013 8.20808207,24.749187 C9.67617629,26.2144727 11.4414347,26.9474433 13.5033647,26.9474433 Z"/>
    <path d="M26.5538024,15.4156513 C26.2578693,15.1193004 25.9056383,14.971084 25.4994894,14.971084 C25.0937508,14.971084 24.7423404,15.1193004 24.4451763,15.4156513 C24.1486687,15.7119202 24.0002918,16.0627563 24.0002918,16.4680777 L24.0002918,19.4624748 C24.0002918,22.3476555 22.9729787,24.8153887 20.918845,26.866084 C18.8653678,28.9168613 16.3932675,29.94225 13.5032827,29.94225 C10.6133799,29.94225 8.14152584,28.9168613 6.08731003,26.866084 C4.03334043,24.8159622 3.00643769,22.3477374 3.00643769,19.4624748 L3.00643769,16.4680777 C3.00643769,16.0627563 2.85797872,15.7119202 2.56130699,15.4156513 C2.26447112,15.1193004 1.91338906,14.971084 1.50699392,14.971084 C1.10059878,14.971084 0.749106383,15.1193004 0.45243465,15.4156513 C0.155516717,15.7119202 0.00713981763,16.0627563 0.00713981763,16.4680777 L0.00713981763,19.4624748 C0.00713981763,22.9089769 1.15935866,25.9072248 3.46313982,28.4567269 C5.76700304,31.0063109 8.61382067,32.4682374 12.0036748,32.8422605 L12.0036748,35.9303887 L6.00548936,35.9303887 C5.59934043,35.9303887 5.24793009,36.0787689 4.95117629,36.3751197 C4.65434043,36.6712248 4.50588146,37.0222248 4.50588146,37.4277101 C4.50588146,37.8325399 4.65434043,38.1841954 4.95117629,38.4803004 C5.24793009,38.7764055 5.59934043,38.9250315 6.00548936,38.9250315 L21.0006657,38.9250315 C21.4067325,38.9250315 21.7586353,38.7764874 22.0549787,38.4803004 C22.3521429,38.1842773 22.5006839,37.8326218 22.5006839,37.4277101 C22.5006839,37.0223067 22.3521429,36.6713067 22.0549787,36.3751197 C21.7587173,36.0787689 21.4068146,35.9303887 21.0006657,35.9303887 L15.0032188,35.9303887 L15.0032188,32.8422605 C18.3924985,32.4682374 21.2390699,31.0063109 23.5431793,28.4567269 C25.8472888,25.9072248 26.9998359,22.9089769 26.9998359,19.4624748 L26.9998359,16.4680777 C26.9998359,16.0628382 26.8510486,15.7122479 26.5538024,15.4156513 Z"/>
  </g>
</svg>
