<?xml version="1.0" encoding="UTF-8"?>
<svg width="47px" height="46px" viewBox="0 0 47 46" version="1.1" xmlns="http://www.w3.org/2000/svg" xmlns:xlink="http://www.w3.org/1999/xlink">
    <!-- Generator: Sketch 43.1 (39012) - http://www.bohemiancoding.com/sketch -->
    <title>Group 5</title>
    <desc>Created with Sketch.</desc>
    <defs></defs>
    <g id="Page-1" stroke="none" stroke-width="1" fill="none" fill-rule="evenodd">
        <g id="article" transform="translate(-1096.000000, -1399.000000)">
            <g id="article-content" transform="translate(466.000000, 771.000000)">
                <g id="quote" transform="translate(171.000000, 614.000000)">
                    <g id="Group-5" transform="translate(459.000000, 0.000000)">
                        <path d="M44.3439084,19 L44.3439084,24.7873884 C42.519047,25.7780274 41.1504216,27.5637578 40.2379909,30.1446331 C39.3255603,32.7255083 38.8693518,36.1275202 38.8693518,40.3507707 L38.8693518,42.1495536 L46.2991071,42.1495536 L46.2991071,59.5117188 L28.936942,59.5117188 L28.936942,46.5291988 C28.936942,38.6562257 30.2143257,32.4257212 32.7691316,27.8374985 C35.3239374,23.2492757 39.1821578,20.3034724 44.3439084,19 Z M15.4069664,19 L15.4069664,24.7873884 C13.5821051,25.7780274 12.2134796,27.5637578 11.301049,30.1446331 C10.3886183,32.7255083 9.93240981,36.1275202 9.93240981,40.3507707 L9.93240981,42.1495536 L17.3621652,42.1495536 L17.3621652,59.5117188 L0,59.5117188 L0,46.5291988 C0,38.6562257 1.27738376,32.4257212 3.83218961,27.8374985 C6.38699546,23.2492757 10.2452158,20.3034724 15.4069664,19 Z" id="“-copy" fill="#E5E5E5" opacity="0.318331069"></path>
                        <text id="“" font-family="LucidaGrande, Lucida Grande" font-size="72" font-weight="normal" fill="#C43439">
                            <tspan x="21.3828125" y="70">“</tspan>
                            <tspan x="50" y="70" font-family="DroidArabicNaskh, Droid Arabic Naskh"></tspan>
                        </text>
                    </g>
                </g>
            </g>
        </g>
    </g>
</svg>