<svg xmlns="http://www.w3.org/2000/svg" width="25" height="26" viewBox="0 0 25 26">
  <path fill="#FFFFFF" d="M315.619891,26.42164 L309.456964,20.0564898 C311.041561,18.1859004 311.909771,15.832316 311.909771,13.3821327 C311.909771,7.65751501 307.219618,3 301.454885,3 C295.690152,3 291,7.65751501 291,13.3821327 C291,19.1067504 295.690152,23.7642654 301.454885,23.7642654 C303.619047,23.7642654 305.681386,23.1160592 307.444626,21.8855508 L313.654373,28.2990004 C313.913927,28.5666789 314.263029,28.7142857 314.637132,28.7142857 C314.991235,28.7142857 315.327155,28.5802208 315.582163,28.3364664 C316.123999,27.8187139 316.141272,26.9601567 315.619891,26.42164 Z M301.454885,5.70838244 C305.715933,5.70838244 309.182409,9.15073653 309.182409,13.3821327 C309.182409,17.6135289 305.715933,21.055883 301.454885,21.055883 C297.193838,21.055883 293.727361,17.6135289 293.727361,13.3821327 C293.727361,9.15073653 297.193838,5.70838244 301.454885,5.70838244 Z" transform="translate(-291 -3)"/>
</svg>
